<svg xmlns="http://www.w3.org/2000/svg" width="512" height="512" viewBox="0 0 512 512" version="1.1"><path d="M 180.250 98.750 C 221.913 98.894, 290.088 98.894, 331.750 98.750 C 373.413 98.605, 339.325 98.487, 256 98.487 C 172.675 98.487, 138.588 98.605, 180.250 98.750 M 58.501 110.066 C 52.880 111.742, 50.962 119.258, 54.909 124.139 L 56.819 126.500 70.909 126.826 L 85 127.151 85 118.076 L 85 109 73.250 109.086 C 66.787 109.133, 60.151 109.574, 58.501 110.066 M 427 117.902 L 427 127 440.545 127 L 454.091 127 456.545 124.545 L 459 122.091 459 118.220 L 459 114.349 456.421 111.924 L 453.841 109.500 440.421 109.152 L 427 108.804 427 117.902 M 410.999 197.201 C 410.725 216.286, 410.844 231.558, 411.264 231.137 C 411.683 230.717, 411.908 215.102, 411.763 196.436 L 411.498 162.500 410.999 197.201 M 101.223 264.094 L 101.500 279.422 178 321.680 C 220.075 344.921, 255.141 363.951, 255.924 363.968 C 257.107 363.995, 401.752 284.730, 408.750 280.220 L 411 278.770 411 263.885 C 411 255.698, 410.752 249, 410.449 249 C 410.145 249, 376.365 267.500, 335.382 290.112 C 294.398 312.724, 259.593 331.705, 258.038 332.292 L 255.209 333.360 237.855 323.829 C 228.310 318.588, 194.296 299.821, 162.269 282.126 C 130.242 264.430, 103.343 249.685, 102.493 249.359 L 100.947 248.766 101.223 264.094" stroke="none" fill="#ff8370" fill-rule="evenodd"/><path d="M 223.596 261.801 C 185.496 282.937, 185.555 277.803, 223.170 298.660 L 254.500 316.032 256.554 315.692 C 257.683 315.505, 272.688 307.569, 289.898 298.056 L 321.189 280.760 319.844 279.519 C 318.509 278.286, 256.585 243.953, 255.872 244.051 C 255.668 244.079, 241.143 252.067, 223.596 261.801" stroke="none" fill="#91dfff" fill-rule="evenodd"/><path d="M 353.250 147.748 L 338 148.052 338 149.835 C 338 150.815, 337.362 152.491, 336.582 153.559 L 335.165 155.500 312.139 156 L 289.114 156.500 314.121 170.311 C 327.875 177.907, 339.693 183.982, 340.384 183.811 C 341.074 183.640, 352.692 177.425, 366.201 170 L 390.763 156.500 381.298 156 L 371.832 155.500 370.416 153.559 C 369.124 151.788, 368.573 149.703, 368.882 147.750 C 368.947 147.338, 368.887 147.100, 368.750 147.222 C 368.613 147.344, 361.637 147.581, 353.250 147.748 M 145.929 170 C 159.907 177.700, 171.775 184, 172.302 184 C 173.116 184, 221.724 157.478, 222.917 156.383 C 223.146 156.172, 200.199 156, 171.924 156 L 120.514 156 145.929 170" stroke="none" fill="#fcb429" fill-rule="evenodd"/><path d="M 353.250 147.748 L 338 148.052 338 149.835 C 338 150.815, 337.362 152.491, 336.582 153.559 L 335.165 155.500 312.139 156 L 289.114 156.500 314.121 170.311 C 327.875 177.907, 339.693 183.982, 340.384 183.811 C 341.074 183.640, 352.692 177.425, 366.201 170 L 390.763 156.500 381.298 156 L 371.832 155.500 370.416 153.559 C 369.124 151.788, 368.573 149.703, 368.882 147.750 C 368.947 147.338, 368.887 147.100, 368.750 147.222 C 368.613 147.344, 361.637 147.581, 353.250 147.748 M 145.929 170 C 159.907 177.700, 171.775 184, 172.302 184 C 173.116 184, 221.724 157.478, 222.917 156.383 C 223.146 156.172, 200.199 156, 171.924 156 L 120.514 156 145.929 170" stroke="none" fill="#fcb429" fill-rule="evenodd"/><path d="M 223.596 261.801 C 185.496 282.937, 185.555 277.803, 223.170 298.660 L 254.500 316.032 256.554 315.692 C 257.683 315.505, 272.688 307.569, 289.898 298.056 L 321.189 280.760 319.844 279.519 C 318.509 278.286, 256.585 243.953, 255.872 244.051 C 255.668 244.079, 241.143 252.067, 223.596 261.801" stroke="none" fill="#91dfff" fill-rule="evenodd"/><path d="M 223.596 261.801 C 185.496 282.937, 185.555 277.803, 223.170 298.660 L 254.500 316.032 256.554 315.692 C 257.683 315.505, 272.688 307.569, 289.898 298.056 L 321.189 280.760 319.844 279.519 C 318.509 278.286, 256.585 243.953, 255.872 244.051 C 255.668 244.079, 241.143 252.067, 223.596 261.801" stroke="none" fill="#91dfff" fill-rule="evenodd"/><path d="M 223.596 261.801 C 185.496 282.937, 185.555 277.803, 223.170 298.660 L 254.500 316.032 256.554 315.692 C 257.683 315.505, 272.688 307.569, 289.898 298.056 L 321.189 280.760 319.844 279.519 C 318.509 278.286, 256.585 243.953, 255.872 244.051 C 255.668 244.079, 241.143 252.067, 223.596 261.801" stroke="none" fill="#91dfff" fill-rule="evenodd"/><path d="M 223.596 261.801 C 185.496 282.937, 185.555 277.803, 223.170 298.660 L 254.500 316.032 256.554 315.692 C 257.683 315.505, 272.688 307.569, 289.898 298.056 L 321.189 280.760 319.844 279.519 C 318.509 278.286, 256.585 243.953, 255.872 244.051 C 255.668 244.079, 241.143 252.067, 223.596 261.801" stroke="none" fill="#91dfff" fill-rule="evenodd"/><path d="M 223.596 261.801 C 185.496 282.937, 185.555 277.803, 223.170 298.660 L 254.500 316.032 256.554 315.692 C 257.683 315.505, 272.688 307.569, 289.898 298.056 L 321.189 280.760 319.844 279.519 C 318.509 278.286, 256.585 243.953, 255.872 244.051 C 255.668 244.079, 241.143 252.067, 223.596 261.801" stroke="none" fill="#91dfff" fill-rule="evenodd"/><path d="M 223.596 261.801 C 185.496 282.937, 185.555 277.803, 223.170 298.660 L 254.500 316.032 256.554 315.692 C 257.683 315.505, 272.688 307.569, 289.898 298.056 L 321.189 280.760 319.844 279.519 C 318.509 278.286, 256.585 243.953, 255.872 244.051 C 255.668 244.079, 241.143 252.067, 223.596 261.801" stroke="none" fill="#91dfff" fill-rule="evenodd"/><path d="M 223.596 261.801 C 185.496 282.937, 185.555 277.803, 223.170 298.660 L 254.500 316.032 256.554 315.692 C 257.683 315.505, 272.688 307.569, 289.898 298.056 L 321.189 280.760 319.844 279.519 C 318.509 278.286, 256.585 243.953, 255.872 244.051 C 255.668 244.079, 241.143 252.067, 223.596 261.801" stroke="none" fill="#91dfff" fill-rule="evenodd"/><path d="M 196.686 41.500 L 138.934 83 121.217 83.006 C 111.455 83.009, 101.704 83.505, 99.500 84.110 L 95.500 85.209 91.267 89.604 L 87.034 94 71.267 94.010 L 55.500 94.020 50.401 96.394 C 33.120 104.441, 33.682 133.264, 51.263 140.549 L 55.500 142.305 70.250 142.776 L 85 143.248 85 223.513 L 85 303.778 86.750 305.833 C 89.471 309.026, 94.893 309.107, 98 306 L 100 304 100 300 C 100 294.867, 99.565 294.774, 114.640 303.117 C 215.409 358.886, 254.242 380, 256.047 380 C 257.243 380, 292.440 361.100, 334.261 338 C 376.082 314.900, 410.682 296, 411.150 296 C 411.617 296, 411.984 310.512, 411.965 328.250 L 411.930 360.500 334.802 403 C 292.382 426.375, 257.167 445.627, 256.547 445.783 C 255.610 446.018, 204.380 418.048, 117 369.594 L 100.500 360.444 100 351.972 C 99.409 341.952, 99.139 341.421, 93.826 339.830 L 89.737 338.605 87.368 341.358 L 85 344.112 85 380.421 L 85 416.730 87.073 419.365 L 89.145 422 93 422 L 96.855 422 98.927 419.365 L 101 416.730 101 397.295 L 101 377.860 109 382.123 L 117 386.385 117 410.558 L 117 434.730 119.073 437.365 L 121.145 440 125 440 L 128.855 440 130.927 437.365 L 133 434.730 133 415.365 C 133 404.714, 133.246 396, 133.547 396 C 133.848 396, 137.448 397.841, 141.547 400.090 L 149 404.181 149 428.456 L 149 452.730 151.073 455.365 L 153.145 458 156.918 458 L 160.690 458 162.595 455.898 L 164.500 453.796 165 433.549 L 165.500 413.302 173 417.432 L 180.500 421.562 181 446.678 L 181.500 471.794 183.405 473.897 L 185.310 476 189.082 476 L 192.855 476 194.927 473.365 L 197 470.730 197 450.795 L 197 430.860 205 435.123 L 213 439.385 213 464.058 L 213 488.730 215.073 491.365 L 217.145 494 221 494 L 224.855 494 226.927 491.365 L 229 488.730 229 468.865 C 229 457.939, 229.338 449.020, 229.750 449.044 C 230.162 449.069, 234.325 451.220, 239 453.826 L 247.500 458.564 248 483.179 L 248.500 507.795 250.405 509.897 L 252.310 512 256 512 L 259.690 512 261.595 509.897 L 263.500 507.795 264 483.179 L 264.500 458.564 273 453.826 C 277.675 451.220, 281.837 449.069, 282.250 449.044 C 282.663 449.020, 283 457.939, 283 468.865 L 283 488.730 285.073 491.365 L 287.145 494 291 494 L 294.855 494 296.927 491.365 L 299 488.730 299.001 464.115 L 299.002 439.500 307.001 435.182 L 315 430.864 315 450.797 L 315 470.730 317.073 473.365 L 319.145 476 322.918 476 L 326.690 476 328.595 473.897 L 330.500 471.794 331 446.678 L 331.500 421.562 339 417.432 L 346.500 413.302 347 433.549 L 347.500 453.796 349.405 455.898 L 351.310 458 355.082 458 L 358.855 458 360.927 455.365 L 363 452.730 363 428.456 L 363 404.181 370.453 400.090 C 374.552 397.841, 378.152 396, 378.453 396 C 378.754 396, 379 404.714, 379 415.365 L 379 434.730 381.073 437.365 L 383.145 440 387 440 L 390.855 440 392.927 437.365 L 395 434.730 395.001 410.615 L 395.002 386.500 403.001 382.182 L 411 377.864 411 397.297 L 411 416.730 413.073 419.365 L 415.145 422 419 422 L 422.855 422 424.927 419.365 L 427 416.730 427 279.989 L 427 143.248 441.750 142.776 L 456.500 142.305 460.737 140.549 C 478.328 133.259, 478.891 104.445, 461.599 96.394 L 456.500 94.020 440.882 94.010 L 425.263 94 420.878 89.615 L 416.493 85.230 412.497 84.121 C 410.268 83.502, 400.692 83.009, 390.851 83.006 L 373.202 83 316.928 41.500 L 260.654 0 257.546 0 L 254.438 -0 196.686 41.500 M 212.082 49.859 L 166.664 82.500 211.257 82.760 C 235.782 82.903, 276.133 82.903, 300.924 82.760 L 345.999 82.500 305.307 52.500 C 282.927 36, 263.015 21.312, 261.058 19.859 L 257.500 17.218 212.082 49.859 M 101.655 99.829 L 100 101.657 100 121.329 L 100 141 215.435 141 L 330.870 141 333.453 141.982 C 337.967 143.698, 338.990 149.867, 335.363 153.494 L 333.857 155 310.429 155 C 297.543 155, 287.012 155.338, 287.027 155.750 C 287.055 156.519, 337.032 184.274, 339.301 184.781 C 340.498 185.048, 390.440 157.960, 392.443 155.957 L 393.400 155 383.391 155 L 373.382 155 371.705 153.750 C 370.782 153.063, 369.759 151.133, 369.431 149.463 L 368.835 146.425 370.827 143.963 L 372.819 141.500 392.410 141.191 L 412 140.881 412 121.096 L 412 101.310 410.171 99.655 L 408.343 98 255.826 98 L 103.310 98 101.655 99.829 M 56.229 109.669 C 51.943 111.394, 50.838 120.536, 54.412 124.694 L 56.824 127.500 71.412 127.844 L 86 128.188 86 118.594 L 86 109 71.750 109.079 C 63.912 109.122, 56.928 109.388, 56.229 109.669 M 426 118.594 L 426 128.188 440.588 127.844 L 455.176 127.500 457.588 124.694 C 465.980 114.933, 459.300 109, 439.918 109 L 426 109 426 118.594 M 119.557 155.957 C 120.884 157.284, 171.126 185, 172.203 185 C 173.640 185, 224.945 156.562, 224.973 155.750 C 224.988 155.338, 201.060 155, 171.800 155 L 118.600 155 119.557 155.957 M 215 177.564 C 166.623 204.353, 176.964 203.906, 135.526 181 C 116.622 170.550, 100.895 162, 100.577 162 C 100.260 162, 100.015 177.637, 100.034 196.750 L 100.068 231.500 137.163 251.874 L 174.259 272.247 177.379 270.750 C 179.096 269.927, 196.925 260.134, 217 248.987 C 260.891 224.618, 250.970 224.555, 296 249.487 C 316.625 260.907, 334.477 270.699, 335.670 271.249 L 337.840 272.248 374.895 251.874 L 411.950 231.500 411.975 196.750 C 411.989 177.637, 411.763 162, 411.473 162 C 411.183 162, 395.469 170.550, 376.552 181 C 335.081 203.910, 345.493 204.367, 296.802 177.500 C 274.375 165.125, 255.907 155.031, 255.762 155.068 C 255.618 155.106, 237.275 165.229, 215 177.564 M 222.279 261.777 C 204.558 271.524, 190.179 279.901, 190.326 280.392 C 190.599 281.297, 254.691 317, 256.043 317 C 257.403 317, 321.397 281.311, 321.671 280.400 C 328.030 259.312, 252.492 245.158, 222.279 261.777 M 100.040 263.677 L 100.080 279.500 177.264 322 C 219.715 345.375, 255.154 364.500, 256.018 364.500 C 256.882 364.500, 292.314 345.375, 334.755 322 L 411.922 279.500 411.961 263.643 L 412 247.786 410.250 248.441 C 409.288 248.801, 374.691 267.749, 333.370 290.548 C 243.811 339.961, 268.282 340.008, 178.205 290.250 C 136.636 267.288, 102.034 248.355, 101.312 248.177 L 100 247.853 100.040 263.677" stroke="none" fill="#000000" fill-rule="evenodd"/><path d="M 102.200 100.200 L 101 101.400 101 121.200 L 101 141 217.845 141 L 334.690 141 336.345 142.829 C 337.255 143.835, 338 145.410, 338 146.329 L 338 148 353.031 148 L 368.063 148 368.683 146.250 C 369.025 145.287, 369.980 143.713, 370.807 142.750 L 372.310 141 391.655 141 L 411 141 411 121.200 L 411 101.400 409.800 100.200 L 408.600 99 256 99 L 103.400 99 102.200 100.200 M 215 178.521 C 166.602 205.329, 177.099 204.865, 135.806 182.023 L 101.500 163.046 101.236 196.709 C 101.092 215.224, 101.317 230.694, 101.736 231.087 C 103.029 232.297, 170.340 269.292, 173 270.255 L 175.500 271.160 214.500 249.581 C 261.365 223.652, 250.686 223.663, 297.525 249.492 C 344.302 275.287, 328.405 276.933, 395.750 239.321 L 411 230.804 411 196.829 L 411 162.853 405.750 165.825 C 332.809 207.116, 346.065 205.571, 297.022 178.500 C 274.603 166.125, 256.089 156.020, 255.880 156.044 C 255.671 156.068, 237.275 166.183, 215 178.521 M 101 299.435 C 101 303.650, 99.275 306.643, 96.084 307.965 L 93 309.243 93 324.121 L 93 339 94.389 339 C 95.153 339, 96.841 339.859, 98.139 340.908 L 100.500 342.817 101 351.493 L 101.500 360.169 178.344 402.585 C 269.480 452.889, 243.613 452.224, 326.597 406.398 C 365.044 385.167, 399.762 366.001, 403.750 363.808 L 411 359.819 411 328.410 C 411 311.134, 410.846 297, 410.658 297 C 410.253 297, 401.735 301.679, 320.274 346.649 C 247.084 387.053, 260.274 384.440, 225.775 365.373 C 210.224 356.779, 184.450 342.545, 168.500 333.743 C 152.550 324.942, 131.079 313.074, 120.786 307.370 C 99.633 295.648, 101 296.197, 101 299.435" stroke="none" fill="#f3d8b2" fill-rule="evenodd"/><path d="M 119.185 155.518 C 120.015 156.348, 225 156.578, 225 155.750 C 225 155.338, 201.075 155, 171.833 155 C 142.592 155, 118.900 155.233, 119.185 155.518" stroke="none" fill="#060505" fill-rule="evenodd"/></svg>